<svg xmlns="http://www.w3.org/2000/svg" viewBox="0 0 300 225">
  <style>
    .sun { fill: #ffffff; opacity: 0.3; }
    .tower { fill: #c5a7e5; stroke: #222; }
    .line { stroke: #212121; opacity: 0.5; }
  </style>
  <ellipse class="sun" cx="150.5" cy="224.75" rx="77.5" ry="77.5"/>
  <ellipse class="sun" cx="150.5" cy="224.75" rx="57.5" ry="57.5"/>
  <ellipse class="sun" cx="150.5" cy="224.75" rx="37.5" ry="37.5"/>
  <polygon class="tower" points="69.807,224.719 72.715,209.374 71.974,203.342 120.42,211.753 118.199,217.581 115.799,232.384"/>
  <polygon class="tower" points="77.295,204.276 79.544,191.37 78.827,186.294 119.809,193.405 118.277,198.349 116.264,210.769"/>
  <polygon class="tower" points="80.163,186.582 82.413,173.676 81.696,168.6 122.677,175.711 121.146,180.655 119.132,193.075"/>
  <polygon class="tower" points="83.032,168.888 85.282,155.982 84.565,150.906 125.546,158.017 124.015,162.961 122.001,175.381"/>
  <polygon class="tower" points="85.901,151.194 88.151,138.288 87.433,133.212 128.415,140.323 126.884,145.267 124.87,157.687"/>
  <polygon class="tower" points="88.77,133.5 91.019,120.594 90.302,115.518 131.284,122.629 129.752,127.573 127.739,139.993"/>
  <polygon class="tower" points="91.638,115.806 93.888,102.9 93.171,97.824 134.152,104.935 132.621,109.879 130.607,122.299"/>
  <path class="tower" d="M127.114,103.327L99.59,98.865l2.466-15.208c0.608-3.75,4.14-6.296,7.89-5.688l13.452,2.181
    c4.022,0.652,6.754,4.441,6.102,8.463L127.114,103.327z"/>
  <line class="line" x1="109.946" y1="77.968" x2="84.783" y2="226.86"/>
  <line class="line" x1="115.708" y1="79.915" x2="90.545" y2="228.807"/>
  <line class="line" x1="120.804" y1="79.728" x2="95.641" y2="228.62"/>
  <line class="line" x1="125.739" y1="80.529" x2="100.577" y2="229.421"/>
  <line class="line" x1="100.502" y1="98.724" x2="75.339" y2="247.616"/>
  <line class="line" x1="128.141" y1="103.205" x2="102.978" y2="252.097"/>
</svg>
