<svg xmlns="http://www.w3.org/2000/svg" viewBox="0 0 300 225">
  <style>
    .sun { fill: #ffffff; opacity: 0.3; }
    .monolith { fill: #59476f; }
    .circle { fill: #ffffff; }
  </style>
  <ellipse class="sun" cx="150.5" cy="224.75" rx="77.5" ry="77.5"/>
  <ellipse class="sun" cx="150.5" cy="224.75" rx="57.5" ry="57.5"/>
  <ellipse class="sun" cx="150.5" cy="224.75" rx="37.5" ry="37.5"/>
  <path class="monolith" d="M68.955,225H47.93l8.333-53.171c0.213-1.361,1.386-2.364,2.763-2.364h6.202
    c1.464,0,2.68,1.129,2.789,2.588l3.727,49.942C71.865,223.617,70.581,225,68.955,225z"/>
  <polygon class="monolith" points="111.754,225 90.203,225 96.005,169.465 103.051,169.465"/>
  <path class="monolith" d="M112.233,175.682H50.767c-3.855,0-6.981-3.125-6.981-6.981v-3.182
    c0-3.796,3.033-6.896,6.827-6.979l61.466-1.351c3.914-0.086,7.134,3.064,7.134,6.979v4.533
    C119.214,172.556,116.089,175.682,112.233,175.682z"/>
  <path class="monolith" d="M202.538,225h-15.319c-2.837,0-5.444,0.24-5.005-2.25l8.296-47.01
    c0.352-1.997,2.289-3.468,4.565-3.468h3.721c2.419,0,4.428,1.656,4.608,3.798l3.741,44.52C207.346,222.971,205.225,225,202.538,225z"/>
  <polygon class="monolith" points="245.98,225 223.157,225 231.421,172.272 242.045,172.272"/>
  <polygon class="monolith" points="283.798,225 262.163,225 267.988,169.25 275.061,169.25"/>
  <path class="monolith" d="M275.011,178.032h-84.307c-4.478,0-8.107-3.63-8.107-8.107v-8.817
    c0-4.669,3.933-8.373,8.593-8.093l84.307,5.064c4.281,0.257,7.621,3.804,7.621,8.093v3.754
    C283.118,174.403,279.489,178.032,275.011,178.032z"/>
  <circle class="circle" cx="24.5" cy="68.5" r="2.5"/>
  <circle class="circle" cx="219.5" cy="28.5" r="1.5"/>
  <circle class="circle" cx="272.5" cy="103.5" r="2"/>
  <circle class="circle" cx="144.5" cy="92.5" r="1"/>
  <circle class="circle" cx="4.5" cy="88.5" r="2.5"/>
  <circle class="circle" cx="29.5" cy="38.5" r="1.5"/>
  <circle class="circle" cx="222.5" cy="143.5" r="2"/>
  <circle class="circle" cx="114.5" cy="42.5" r="1"/>
</svg>
